<svg xmlns="http://www.w3.org/2000/svg" viewBox="0 0 64 64">
  <defs>
    <linearGradient id="g" x1="0%" y1="0%" x2="100%" y2="100%">
      <stop offset="0%" stop-color="#06b6d4"/>
      <stop offset="50%" stop-color="#3b82f6"/>
      <stop offset="100%" stop-color="#8b5cf6"/>
    </linearGradient>
  </defs>
  <rect width="64" height="64" rx="14" fill="#0a0a0a"/>
  <!-- Neural network nodes -->
  <circle cx="16" cy="20" r="3" fill="#06b6d4" opacity="0.8"/>
  <circle cx="16" cy="32" r="3" fill="#06b6d4" opacity="0.8"/>
  <circle cx="16" cy="44" r="3" fill="#06b6d4" opacity="0.8"/>
  <circle cx="32" cy="16" r="3.5" fill="#3b82f6" opacity="0.9"/>
  <circle cx="32" cy="32" r="3.5" fill="#3b82f6" opacity="0.9"/>
  <circle cx="32" cy="48" r="3.5" fill="#3b82f6" opacity="0.9"/>
  <circle cx="48" cy="24" r="3" fill="#8b5cf6" opacity="0.8"/>
  <circle cx="48" cy="40" r="3" fill="#8b5cf6" opacity="0.8"/>
  <!-- Connections -->
  <line x1="16" y1="20" x2="32" y2="16" stroke="url(#g)" stroke-width="0.8" opacity="0.4"/>
  <line x1="16" y1="20" x2="32" y2="32" stroke="url(#g)" stroke-width="0.8" opacity="0.4"/>
  <line x1="16" y1="32" x2="32" y2="16" stroke="url(#g)" stroke-width="0.8" opacity="0.3"/>
  <line x1="16" y1="32" x2="32" y2="32" stroke="url(#g)" stroke-width="0.8" opacity="0.4"/>
  <line x1="16" y1="32" x2="32" y2="48" stroke="url(#g)" stroke-width="0.8" opacity="0.3"/>
  <line x1="16" y1="44" x2="32" y2="32" stroke="url(#g)" stroke-width="0.8" opacity="0.4"/>
  <line x1="16" y1="44" x2="32" y2="48" stroke="url(#g)" stroke-width="0.8" opacity="0.4"/>
  <line x1="32" y1="16" x2="48" y2="24" stroke="url(#g)" stroke-width="0.8" opacity="0.4"/>
  <line x1="32" y1="16" x2="48" y2="40" stroke="url(#g)" stroke-width="0.8" opacity="0.3"/>
  <line x1="32" y1="32" x2="48" y2="24" stroke="url(#g)" stroke-width="0.8" opacity="0.4"/>
  <line x1="32" y1="32" x2="48" y2="40" stroke="url(#g)" stroke-width="0.8" opacity="0.4"/>
  <line x1="32" y1="48" x2="48" y2="24" stroke="url(#g)" stroke-width="0.8" opacity="0.3"/>
  <line x1="32" y1="48" x2="48" y2="40" stroke="url(#g)" stroke-width="0.8" opacity="0.4"/>
  <!-- S letter overlay -->
  <text x="32" y="42" font-family="monospace" font-weight="bold" font-size="28" fill="url(#g)" text-anchor="middle" opacity="0.9">S</text>
</svg>
